#!OML:ASF H:\Dans Jumps\Project 1\Capture day 1\Session 1\subject.ASF
:FULLY-SPECIFIED
:DEGREES
464
root 0.032953 17.3968 -7.27558 10.72 -1.45854 -0.566654
lowerback 6.37946 0.335892 -0.982338
upperback 5.97295 0.382869 1.36959
thorax 2.57353 0.127072 1.9471
lowerneck -13.1906 -0.0965022 -1.27774
upperneck 32.1266 0.00325391 0.593755
head 12.9021 -0.0761337 0.453719
rclavicle -9.24349e-015 -1.31198e-014
rhumerus -27.5222 -18.4016 -77.385
rradius 24.244
rwrist 31.7483
rhand -19.6677 -22.4664
rfingers 7.12502
rthumb 6.6606 -52.3416
lclavicle -9.24349e-015 -1.31198e-014
lhumerus -25.9442 -5.60589 90.9905
lradius 29.8197
lwrist 19.367
lhand -27.5287 -7.03387
lfingers 7.12502
lthumb -0.93069 22.9438
rfemur -26.9958 -3.21006 19.0175
rtibia 35.2223
rfoot -17.2332 -1.3186
rtoes 3.72167
lfemur -25.1197 5.98854 -18.3437
ltibia 30.8032
lfoot -14.2701 5.82068
ltoes -0.010775
465
root 0.030579 17.3975 -7.26938 10.7049 -1.44934 -0.568003
lowerback 6.34272 0.328276 -1.00996
upperback 5.97372 0.371671 1.3817
thorax 2.59507 0.120086 1.97578
lowerneck -13.1632 -0.0921562 -1.29944
upperneck 32.05 0.0240034 0.567107
head 12.8639 -0.0728346 0.449872
rclavicle -9.93923e-017 -2.78299e-015
rhumerus -27.4801 -18.2487 -77.478
rradius 24.2874
rwrist 31.6669
rhand -19.6182 -22.4922
rfingers 7.12502
rthumb 6.70842 -52.3659
lclavicle -9.93923e-017 -2.78299e-015
lhumerus -25.8484 -5.75913 91.0054
lradius 29.8363
lwrist 19.422
lhand -27.5495 -7.05886
lfingers 7.12502
lthumb -0.95083 22.9188
rfemur -26.9359 -3.22688 19.0299
rtibia 35.1907
rfoot -17.2435 -1.31571
rtoes 3.77636
lfemur -25.0633 5.9856 -18.3303
ltibia 30.7723
lfoot -14.2741 5.8282
ltoes -0.0199804
466
root 0.0283594 17.3982 -7.26308 10.6891 -1.44554 -0.572095
lowerback 6.3031 0.322397 -1.0354
upperback 5.97557 0.362864 1.3944
thorax 2.61925 0.114315 2.00377
lowerneck -13.1432 -0.0869507 -1.31476
upperneck 31.9799 0.0462264 0.534508
head 12.83 -0.0688865 0.442877
rclavicle 5.46658e-015 1.33186e-014
rhumerus -27.4484 -18.0999 -77.5642
rradius 24.3312
rwrist 31.6116
rhand -19.5612 -22.5221
rfingers 7.12502
rthumb 6.76346 -52.3941
lclavicle 5.46658e-015 1.33186e-014
lhumerus -25.7524 -5.90396 91.0168
lradius 29.8306
lwrist 19.447
lhand -27.5845 -7.06253
lfingers 7.12502
lthumb -0.984641 22.9149
rfemur -26.8734 -3.23666 19.043
rtibia 35.1561
rfoot -17.2551 -1.31567
rtoes 3.79798
lfemur -25.0066 5.98419 -18.3145
ltibia 30.745
lfoot -14.2799 5.83998
ltoes -0.0309862
467
root 0.0262744 17.3988 -7.25682 10.6725 -1.44739 -0.578881
lowerback 6.26248 0.317535 -1.06025
upperback 5.9787 0.35541 1.40843
thorax 2.64529 0.109175 2.03274
lowerneck -13.1304 -0.0797223 -1.32916
upperneck 31.9147 0.0717851 0.499963
head 12.7998 -0.0636144 0.4355
rclavicle -5.76476e-015 -3.77691e-015
rhumerus -27.4243 -17.9469 -77.6465
rradius 24.3773
rwrist 31.5726
rhand -19.4929 -22.5555
rfingers 7.12502
rthumb 6.82939 -52.4254
lclavicle -5.76476e-015 -3.77691e-015
lhumerus -25.6581 -6.03122 91.0246
lradius 29.8069
lwrist 19.4429
lhand -27.6082 -7.03154
lfingers 7.12502
lthumb -1.00748 22.9458
rfemur -26.8103 -3.2382 19.057
rtibia 35.1202
rfoot -17.2674 -1.31784
rtoes 3.8095
lfemur -24.9506 5.98552 -18.2967
ltibia 30.7217
lfoot -14.2857 5.85616
ltoes -0.0469353
468
root 0.0242837 17.3992 -7.25064 10.6559 -1.45252 -0.58767
lowerback 6.2236 0.314946 -1.08128
upperback 5.97827 0.351168 1.42078
thorax 2.66652 0.105869 2.05767
lowerneck -13.1067 -0.0743281 -1.34665
upperneck 31.8471 0.0923937 0.47432
head 12.7664 -0.059691 0.431363
rclavicle -1.98785e-016 -5.96354e-015
rhumerus -27.421 -17.7868 -77.7272
rradius 24.4274
rwrist 31.5365
rhand -19.4341 -22.588
rfingers 7.12502
rthumb 6.88611 -52.456
lclavicle -1.98785e-016 -5.96354e-015
lhumerus -25.5808 -6.14455 91.0259
lradius 29.7751
lwrist 19.4019
lhand -27.5601 -6.86617
lfingers 7.12502
lthumb -0.961028 23.1114
rfemur -26.7483 -3.23297 19.0722
rtibia 35.0857
rfoot -17.2799 -1.32528
rtoes 3.80242
lfemur -24.8964 5.98459 -18.2763
ltibia 30.7031
lfoot -14.292 5.87779
ltoes -0.0586221
469
root 0.0223528 17.3996 -7.24475 10.6387 -1.45842 -0.595551
lowerback 6.18852 0.311463 -1.103
upperback 5.97701 0.345726 1.4321
thorax 2.68486 0.101987 2.08195
lowerneck -13.0852 -0.0672019 -1.36269
upperneck 31.7816 0.114767 0.449552
head 12.7343 -0.0547046 0.427581
rclavicle -2.5842e-015 -6.75868e-015
rhumerus -27.4254 -17.6115 -77.8113
rradius 24.4813
rwrist 31.4972
rhand -19.3712 -22.6236
rfingers 7.12502
rthumb 6.94681 -52.4896
lclavicle -2.5842e-015 -6.75868e-015
lhumerus -25.5151 -6.23375 91.0195
lradius 29.7396
lwrist 19.3406
lhand -27.4804 -6.64291
lfingers 7.12502
lthumb -0.884069 23.335
rfemur -26.6886 -3.22313 19.0857
rtibia 35.055
rfoot -17.2925 -1.33828
rtoes 3.78738
lfemur -24.8446 5.98108 -18.2568
ltibia 30.6883
lfoot -14.298 5.90207
ltoes -0.063939
470
root 0.0204672 17.3999 -7.23923 10.623 -1.46467 -0.602702
lowerback 6.15542 0.306842 -1.12455
upperback 5.9742 0.33882 1.44177
thorax 2.70055 0.0974464 2.10445
lowerneck -13.0541 -0.0589574 -1.38518
upperneck 31.7103 0.137231 0.434073
head 12.6978 -0.0492099 0.428473
rclavicle 7.95139e-016 -1.98785e-015
rhumerus -27.433 -17.4224 -77.9008
rradius 24.534
rwrist 31.4533
rhand -19.2997 -22.6619
rfingers 7.12502
rthumb 7.01585 -52.5256
lclavicle 7.95139e-016 -1.98785e-015
lhumerus -25.4631 -6.30017 91.0059
lradius 29.7069
lwrist 19.2622
lhand -27.4299 -6.44223
lfingers 7.12502
lthumb -0.835317 23.5359
rfemur -26.6352 -3.2084 19.0979
rtibia 35.0296
rfoot -17.3036 -1.35396
rtoes 3.78432
lfemur -24.7971 5.97417 -18.238
ltibia 30.6758
lfoot -14.302 5.92896
ltoes -0.0712056
471
root 0.0186606 17.4002 -7.23387 10.6067 -1.46887 -0.607853
lowerback 6.12418 0.299112 -1.14665
upperback 5.97102 0.327793 1.45021
thorax 2.71503 0.0908642 2.12613
lowerneck -13.0285 -0.0467873 -1.40335
upperneck 31.6466 0.165574 0.414335
head 12.6657 -0.0411991 0.427854
rclavicle -3.77691e-015 -3.77691e-015
rhumerus -27.4399 -17.2128 -77.9981
rradius 24.5852
rwrist 31.3996
rhand -19.2269 -22.6994
rfingers 7.12502
rthumb 7.08613 -52.5608
lclavicle -3.77691e-015 -3.77691e-015
lhumerus -25.4241 -6.34688 90.9863
lradius 29.6771
lwrist 19.1827
lhand -27.4427 -6.34291
lfingers 7.12502
lthumb -0.847685 23.6352
rfemur -26.5841 -3.19347 19.1076
rtibia 35.0093
rfoot -17.3149 -1.37136
rtoes 3.78771
lfemur -24.7498 5.9629 -18.2211
ltibia 30.664
lfoot -14.3062 5.95616
ltoes -0.070203
472
root 0.0169313 17.4006 -7.22855 10.5898 -1.47054 -0.613327
lowerback 6.09314 0.288499 -1.16647
upperback 5.96809 0.313053 1.45759
thorax 2.72986 0.0825222 2.14557
lowerneck -13.0102 -0.0308604 -1.4118
upperneck 31.5931 0.199363 0.386557
head 12.6393 -0.0307256 0.423284
rclavicle 2.98177e-015 -5.76476e-015
rhumerus -27.4459 -16.9854 -78.1029
rradius 24.6363
rwrist 31.3428
rhand -19.1546 -22.7405
rfingers 7.12502
rthumb 7.15588 -52.5995
lclavicle 2.98177e-015 -5.76476e-015
lhumerus -25.3937 -6.38932 90.9632
lradius 29.6473
lwrist 19.116
lhand -27.5057 -6.30721
lfingers 7.12502
lthumb -0.908549 23.6706
rfemur -26.534 -3.17824 19.1173
rtibia 34.9924
rfoot -17.3256 -1.38865
rtoes 3.80668
lfemur -24.7025 5.94736 -18.2036
ltibia 30.6527
lfoot -14.3111 5.98428
ltoes -0.077145
473
root 0.0153539 17.401 -7.22325 10.5721 -1.47053 -0.618784
lowerback 6.06184 0.274846 -1.18415
upperback 5.9668 0.294373 1.46401
thorax 2.74675 0.0722718 2.16295
lowerneck -12.9978 -0.0110069 -1.41543
upperneck 31.5455 0.238929 0.354476
head 12.6167 -0.0177263 0.417083
rclavicle -2.5842e-015 -7.35503e-015
rhumerus -27.4472 -16.7387 -78.2171
rradius 24.6899
rwrist 31.2863
rhand -19.0863 -22.7856
rfingers 7.12502
rthumb 7.22184 -52.6424
lclavicle -2.5842e-015 -7.35503e-015
lhumerus -25.3689 -6.42797 90.9375
lradius 29.6168
lwrist 19.0636
lhand -27.5775 -6.29449
lfingers 7.12502
lthumb -0.977837 23.683
rfemur -26.4836 -3.1657 19.1268
rtibia 34.9767
rfoot -17.3346 -1.4038
rtoes 3.8267
lfemur -24.6543 5.92691 -18.1858
ltibia 30.6422
lfoot -14.3157 6.01518
ltoes -0.0856482
474
root 0.0139743 17.4014 -7.218 10.5547 -1.46949 -0.628426
lowerback 6.03024 0.25954 -1.19406
upperback 5.96541 0.27379 1.47005
thorax 2.76381 0.0613518 2.17562
lowerneck -12.9889 0.0108102 -1.41566
upperneck 31.5025 0.280393 0.322445
head 12.5967 -0.00350455 0.410603
rclavicle -2.28602e-015 -8.34896e-015
rhumerus -27.4491 -16.4768 -78.3384
rradius 24.7506
rwrist 31.2322
rhand -19.0277 -22.833
rfingers 7.12502
rthumb 7.27838 -52.6878
lclavicle -2.28602e-015 -8.34896e-015
lhumerus -25.345 -6.47262 90.9099
lradius 29.5782
lwrist 19.0231
lhand -27.6037 -6.17736
lfingers 7.12502
lthumb -1.00313 23.8
rfemur -26.4332 -3.15599 19.1408
rtibia 34.9601
rfoot -17.3428 -1.41669
rtoes 3.83605
lfemur -24.608 5.90483 -18.164
ltibia 30.6343
lfoot -14.3208 6.0475
ltoes -0.104656
